<svg id="Layer_1" data-name="Layer 1" xmlns="http://www.w3.org/2000/svg" viewBox="0 0 500 2500"><title>black scribble-02</title><path d="M1762-581c-.18-19.58-15.8-34.33-35-35-183.26-6.37-352.59,83.46-493.85,192.48C1082.08-306.94,953.08-165.07,829.58-20.37,720.77-86.84,608.71-149.13,496-207.69c-56.7-29.44-109.18-66.49-165.37-96.92C273.69-335.43,209.12-363.66,143-360c-21.5,1.19-41.39,21.64-33.75,44.3,63.38,188,184.4,346.94,303.84,502.5q15.53,20.23,31.17,40.55c-50.08,16.49-100.36,32.24-150.47,48-48.21,15.13-96.56,30.23-144.78,45.8C-71.83,233.44-302.84,173.72-530.7,107.25-653.88,71.31-776.77,34.32-898.47-6.38c-100.7-33.68-201.75-68.34-299.16-110.73-91.39-39.76-182.59-82.17-279.65-106.39-46-11.48-94.07-18.21-141.57-16.32-46.87,1.86-89.29,14.84-131.81,33.75C-1823-173.9-1883.75-117-1934.3-57.23c-57.91,68.51-105.58,145.17-148.42,223.79-76.23,139.91-136.07,288-202.29,432.78-60.2,131.57-116.25,265.29-160.8,403-49,151.33-86.21,311.3-83.21,471.23,2.73,145.25,46.93,292.2,158.54,390.93,32.53,28.77,68.45,54.91,110.52,66.57,61.46,17,124.59,27.76,188.06,33.67,125.56,11.71,253.16-3,374.27-37.14,30.06-8.48,59.15-21,89.3-28.78q47.88-12.31,95.52-25.44,91.56-25.11,182.28-53.16,181.38-55.83,359-123.06c82.5-31.11,164.53-64,246.16-97.8a36.92,36.92,0,0,0,11.08,5.35c74.48,22.07,157.71-5.48,226.87-33.15,79.07-31.64,154-72.52,227.43-115.4,43.44-25.36,87.25-50.08,131-74.88q-9.24,22.41-16.94,45.39c-42,31.72-82.43,65.69-118.48,103.93-35.91,38.08-69.94,83.26-82.33,135.06-5.39,22.52,10.52,43.63,33.75,44.3,47.4,1.36,94.62.52,141.68-2.07a670.28,670.28,0,0,0,39.84,146.23q-44.09,28.29-88.31,56.36c-95.56,60.5-190.75,121.71-281.7,189-75.12,55.58-147.42,115.31-212.26,182.72-25.69,26.71.59,64.52,34,58.5C-440.42,2297.7-221.07,2181-6.3,2072.39c179.74-90.91,365.15-169.69,539.43-270.54q-20.82,24.14-41.34,48.52c-78.43,93.36-160.22,191.27-214.1,301.5-17.28,35.36-34.85,76.85-31.61,117.18,5.31,66.19,68.67,105.19,129,115.13,58.55,9.65,118,3,176.86.5,27.33-1.16,54.75-1.34,82,1.74a130.85,130.85,0,0,1,23.76,4.88c-96.4,121.07-215.72,224.49-337.39,318.95-102.32,79.45-210,152.42-320.58,220.12,47.2-66.24,117.44-118.56,181.7-164.37,103.92-74.07,219.55-139.21,306.38-234.25,12.41-13.59,14.54-36.2,0-49.5-32.21-29.46-70.69-34.2-112.75-34.25-45.14-.05-45.14,69.95,0,70,8.84,0,18.2-.29,27.34.42-82.34,76.8-183,134-273.66,199.61-102.4,74.14-210.34,163.9-243.43,291.67-7.69,29.7,24.53,55,51.41,39.52,150.58-86.84,295.55-183.16,433.09-289.47,137.09-106,267.52-223.76,371.47-363.08,12.29-16.48,1.37-37.57-12.55-47.89-61.15-45.33-148.7-35.82-220-31.9-38.56,2.11-77.37,4.18-115.85-.27-25.81-3-55.13-14.29-69-32.9a105,105,0,0,1-6.19-9.67c-.67-2.11-1.19-4.27-1.66-6.43l0-.15c0-.47-.05-1-.09-1.7a96.78,96.78,0,0,1,.19-12.16c0-.86.09-1.54.13-2.11s.18-1,.3-1.7c.69-4,1.62-8,2.6-12a245,245,0,0,1,9.08-28.12c.43-1.13.87-2.25,1.32-3.37s1.54-3.74,1.9-4.57c2.15-4.9,4.44-9.74,6.76-14.56,5.45-11.31,11.41-22.37,17.56-33.31,13.48-24,28.37-47.12,43.77-69.88,75.29-111.2,164.22-213,255.12-314.34q59.65-66.51,120.83-131.61,49.65-39.4,96.34-82.31c8.88-8.19,11.57-19.45,9.58-30l34.41-36.35c26.4-27.9,53.07-55.65,78.23-84.68,3.47-4,6.87-8,10.16-12.18q4.36-5.48,8.56-11.1c-6.72,9,.85-.8,1.94-2.14,3.26-4,6.57-8,9.87-11.9,24.59-29.41,49.94-58.18,74.61-87.52,58-69,114.59-141.3,154.48-222.6,37.23-75.87,59.37-164.18,30.62-246.64-21.3-61.1-62.41-105.42-113.39-138q48-40.41,92.93-84.83c22.86-22.75,4.71-57.63-24.75-59.75-50.14-3.61-100.34-5.08-150.54-4.75q74.63-63.64,146.18-130.81C1491.77,150,1738.59-157.12,1760.73-524.41,1761.87-543.25,1762.18-562.13,1762-581ZM1212.9-317.35C1346.63-432.52,1510.55-539,1691.55-545.92c-4.63,133.78-42.55,259.65-101.18,377-16.32-9.3-34.56-14.34-54.37-13.11-33.6,2.08-62.49,20-88.22,40.48-183,38.1-359.51,101.9-531.14,175.72q-13.51-8.7-27.1-17.29C990.53-100.95,1095.16-216,1212.9-317.35ZM-581.4,1462.1c51.91-49.91,114.13-90.45,175.56-124.5,82.29-45.62,173.42-83.74,266.48-106.16-16.06,12.36-32.89,23.68-51.73,35.88-65.79,42.59-135.85,78.62-206.34,112.7C-459.19,1409.88-520.16,1436.3-581.4,1462.1Zm514.27-199.84c-.87,1.39-1.71,2.8-2.57,4.2l-7.42,4.26Q-72.08,1266.57-67.13,1262.26ZM-201.8,567.92a284.72,284.72,0,0,1-64.89-5.53C-134.91,492.19,4.9,441.22,146.78,395.16q9.54,3.87,19.06,7.81C55,459.19-57.11,513.06-169.8,565.61-180.35,567.21-191.16,567.57-201.8,567.92Zm660.92-10.29c1.51-2.12,3-4.23,4.54-6.34,3.52,2.15,7,4.31,10.56,6.48Q466.67,557.68,459.12,557.63Zm-85.34-.16c-51,.21-102,.9-153,1.74-73.71,1.2-147.42,2.43-221.14,2.47q125.19-60.15,249.23-122.77c52.32,23.72,103.8,49.26,154,77.13Q388.26,536.69,373.78,557.47ZM-151,633.07q4.46-.71,8.88-1.44c14.42-2.4,29.12-1,43.72-.74,33.59.64,67.19.82,100.79.82,104.74,0,209.46-2.56,314.19-3.91-151.77,33-302.74,70.1-453.46,106.94-228.61,55.86-454.09,123.69-678,195.9Q-568.43,824.49-324.24,713.1-237.39,673.49-151,633.07ZM377.5,686.56c73-15.68,146.35-30.43,220-43.37l.72.56c37.79,29.42,74.68,61,113.08,90.09C578.79,834.45,445,933.7,307.65,1027.51q-117.28,80.09-237.95,155,2.28-4.17,4.57-8.35,22.91-41.61,46.41-82.89,45.13-79.47,92.45-157.66,75.12-124.42,155.93-245.27Zm410.37-11q-5.21-16.82-11-33.28c15.89,1.62,31.78,3.28,47.65,5.08Q806.22,661.46,787.87,675.52ZM653.62,563.29q-25.86-1.38-51.71-2.38c-31.8-22.86-63.59-45.57-97-66.38q33.79-45.86,68.49-91c34.23,50.8,66,103.11,93,157.69ZM444.18,458.75c-38.12-21.36-77-41.24-116.49-60q88.68-45.59,177.47-91,13.11,17.65,26,35.5Q486.94,400.37,444.18,458.75ZM567.79,276q13.41-6.75,26.84-13.48-9.55,12-19.07,24Q571.69,281.2,567.79,276Zm-368.88-551c-1.44-3.43-2.83-6.87-4.21-10.32,39.23,8.74,76.54,28,111.32,47.08,53.86,29.62,104.42,65,159,93.33C572.64-89.07,679.62-29.63,783.69,33.6Q742.59,82.14,701.92,131C640.2,158,577,181.92,513.22,204.08,395.79,51.75,272.91-97.89,198.91-275.06ZM-1458.28,1785.32q-43.8,12.66-87.8,24.61c-31.62,8.63-64.92,14.78-95.67,26a1082.9,1082.9,0,0,1-186.21,49.7c-122,21.34-248.13,16.07-368.7-10.88-25.06-5.6-52.51-9.93-74.57-23.4a366.21,366.21,0,0,1-43.22-30.76,367.07,367.07,0,0,1-67.17-73c-39.06-56.57-59.38-119.1-70.39-187.38-23.69-146.91,7.35-307.09,47.15-451s95-283.69,154.93-418.44c60.48-136,119.28-273.39,185.17-406.85,39.82-80.66,83.54-159.7,135.26-233.39,44.86-63.93,98.19-125.25,163.83-168.49,70.1-46.19,147.13-60.69,230.53-46.42,96.2,16.45,187.05,57.22,275.84,96.12C-1046.57,25-823.6,93.93-601.08,159.57c215.4,63.53,434.55,119.18,645.72,196.27-125.35,43.21-248.57,92.16-365,156-17,9.29-33.68,19-50.25,29-20.4,12.25-25.16,49.54,0,60.44A473.34,473.34,0,0,0-300,625.7q-96,43.88-192.28,87.06-348.91,156.87-702.61,302.77Q-1477.16,1132-1762.3,1241.25c-14.76,5.66-25.7,17-25.7,33.75,0,17.89,16,36.57,35,35,58.56-4.84,115.77-16.32,171.27-35.68,55.78-19.46,106.5-49.69,162.38-68.38,122.8-41.09,245.42-82.76,368.22-123.87,244.39-81.81,489.7-161.22,738.32-229.33,193-52.87,388.3-99.7,583.89-143Q144.35,904,31.54,1106.93C18.8,1129.75,6.73,1152.37-7,1174.16c-2.44-16.74-15.24-32.24-34-30.16-138.45,15.34-273.09,64.37-395.16,130.41C-543.09,1332.26-653.59,1411.91-717,1519q-13.79,5.85-27.65,11.81C-976.77,1630.67-1215.56,1715.19-1458.28,1785.32ZM8.77,1301.73q160.73-95.94,315.66-201.17C487.53,990.23,645,871.58,801.66,752.4q59.72-45.4,118.73-91.78c20.19,3.48,40.31,7.45,60.33,12.14,18.74,4.39,37.67,9.43,56.35,15.42C928.74,767.54,811.94,836,696,902.76c-93.91,54.06-188.54,106.9-281.33,162.9-74.08,44.7-144,95.59-217.76,140.64-78.26,47.81-157.51,93.89-234.15,144.15q8.66-16.31,18-32.17Q-5.2,1310.06,8.77,1301.73Zm-270.14,338.93a326.71,326.71,0,0,1,19.69-29.45c17.58-23.74,44.51-50.14,69-72.25a577.32,577.32,0,0,0-5.07,99.51Q-219.54,1640.54-261.37,1640.66Zm159.74,62.22c91.13-8.17,181.73-22.1,272-38.49Q119.26,1695,68.8,1726.54c-47.08,29.42-93.86,59.33-140.59,89.31A577.23,577.23,0,0,1-101.63,1702.88ZM706.66,1472c0,.8,0,1.83-.08,3-3.56.39-7.12.81-10.66,1.26Q701.29,1474.13,706.66,1472Zm-310.72,148c48-9.73,94.91-23.72,142-37.15q-10,7.72-20.09,15.34-54.56,41-112.22,77.63c-113.49,72-237,125.37-367.36,153.62,113.92-72.16,228.55-143,347.12-207.29ZM237.06,1878.32C131,1929.14,24.56,1978.45-80.41,2031.58c-108.75,55-217.84,110-331,155.67-52,21-105,39.95-158.89,55.64,135.56-117.29,290.73-211.67,441.68-307.29q16.33-10.35,32.65-20.74A29.16,29.16,0,0,0-81,1918a1146.33,1146.33,0,0,0,373-100.15c116.32-53.36,222.16-126.6,321.91-206.22,50.88-10.34,104.59-27.81,138.77-68.59,5.22,0,10.37.14,15.44.45q-20.34,21.59-40.61,43.25C577.67,1704.42,408.83,1796,237.06,1878.32ZM1179.62,770.1c52,54.16,56.32,128.79,34.83,198.58-25.21,81.85-78.93,155.19-131.74,221.35-25.9,32.45-53,63.88-80.07,95.36-11,12.77-21.9,25.56-32.66,38.49-5.73,6.89-11.54,13.8-16.86,21-38.94,48.41-82.9,93.32-126.61,138a220,220,0,0,0-50.37-9.62c-1-21.93-8.18-44-18.92-64-6.91-12.85-25.37-21.36-39.52-16.08-124.05,46.29-243.54,102.4-359.9,164.63-39.54,8.09-79.52,14.86-118.88,22.66-61,12.09-122.12,23.42-183.53,33.13C1.16,1622.25-53.36,1629.1-108,1633.76a543.52,543.52,0,0,1,3.43-78.93,500.53,500.53,0,0,1,17.88-85.63c38.39-28.26,78.27-54.6,118.29-80.23,63-40.36,127.67-78,191.69-116.77,71.51-43.24,139.09-92.57,210.44-136.2C658.56,998.49,902.54,881.26,1112.3,719.65,1137.06,733.14,1160,749.62,1179.62,770.1ZM1077.38,593.42q38.71-.58,77.43.45-25.49,22.49-51.93,43.78c-35.57-14.68-73.33-25.68-111-34.19l9.39-7.63Q1039.32,594,1077.38,593.42ZM1205.76,323.3c-73.76,71-150.88,138.47-230,203.56-79.14,4.47-158.15,12.8-236.76,23.66-33.81-71.74-75.41-139.21-120.85-204.6q62.38-79.32,126.85-157.11,12.9-6.17,25.82-12.26,6.66-3.11,13.28-6.26,87.18-40.92,175.72-78.92c108-46.09,218.36-87.18,330.89-120.85q83.4-25,168.63-43.1c16.43-3.49,25.46-10.13,38.73-20,10.16-7.56,21.18-14.18,33.26-18,10.35-3.27,18.16-2,26,3.13C1465.08,53.64,1336.14,197.72,1205.76,323.3Z"/></svg>